<svg width="169" height="18" viewBox="0 0 169 18" fill="none" xmlns="http://www.w3.org/2000/svg">
<path d="M4.60006 15.0398C3.88006 15.0398 3.23339 14.9131 2.66006 14.6598C2.08673 14.4065 1.60006 14.0465 1.20006 13.5798C0.813392 13.1131 0.513392 12.5465 0.300059 11.8798C0.100059 11.2131 5.86361e-05 10.4665 5.86361e-05 9.6398C5.86361e-05 8.81314 0.100059 8.06647 0.300059 7.3998C0.513392 6.73314 0.813392 6.16647 1.20006 5.6998C1.60006 5.23314 2.08673 4.87314 2.66006 4.6198C3.23339 4.36647 3.88006 4.2398 4.60006 4.2398C5.62673 4.2398 6.44673 4.46647 7.06006 4.9198C7.68673 5.3598 8.15339 5.9398 8.46006 6.6598L7.12006 7.3398C6.93339 6.80647 6.62673 6.39314 6.20006 6.0998C5.77339 5.80647 5.24006 5.6598 4.60006 5.6598C4.12006 5.6598 3.70006 5.7398 3.34006 5.8998C2.98006 6.04647 2.68006 6.2598 2.44006 6.5398C2.20006 6.80647 2.02006 7.13314 1.90006 7.5198C1.78006 7.89314 1.72006 8.30647 1.72006 8.7598V10.5198C1.72006 11.4265 1.96006 12.1731 2.44006 12.7598C2.93339 13.3331 3.65339 13.6198 4.60006 13.6198C5.89339 13.6198 6.82673 13.0198 7.40006 11.8198L8.56006 12.5998C8.22673 13.3465 7.72673 13.9398 7.06006 14.3798C6.40673 14.8198 5.58673 15.0398 4.60006 15.0398ZM14.6015 15.0398C13.9081 15.0398 13.2748 14.9131 12.7015 14.6598C12.1281 14.4065 11.6348 14.0465 11.2215 13.5798C10.8215 13.0998 10.5081 12.5331 10.2815 11.8798C10.0548 11.2131 9.94146 10.4665 9.94146 9.6398C9.94146 8.82647 10.0548 8.08647 10.2815 7.4198C10.5081 6.75314 10.8215 6.18647 11.2215 5.7198C11.6348 5.2398 12.1281 4.87314 12.7015 4.6198C13.2748 4.36647 13.9081 4.2398 14.6015 4.2398C15.2948 4.2398 15.9215 4.36647 16.4815 4.6198C17.0548 4.87314 17.5481 5.2398 17.9615 5.7198C18.3748 6.18647 18.6948 6.75314 18.9215 7.4198C19.1481 8.08647 19.2615 8.82647 19.2615 9.6398C19.2615 10.4665 19.1481 11.2131 18.9215 11.8798C18.6948 12.5331 18.3748 13.0998 17.9615 13.5798C17.5481 14.0465 17.0548 14.4065 16.4815 14.6598C15.9215 14.9131 15.2948 15.0398 14.6015 15.0398ZM14.6015 13.6198C15.4681 13.6198 16.1748 13.3531 16.7215 12.8198C17.2681 12.2865 17.5415 11.4731 17.5415 10.3798V8.8998C17.5415 7.80647 17.2681 6.99314 16.7215 6.4598C16.1748 5.92647 15.4681 5.6598 14.6015 5.6598C13.7348 5.6598 13.0281 5.92647 12.4815 6.4598C11.9348 6.99314 11.6615 7.80647 11.6615 8.8998V10.3798C11.6615 11.4731 11.9348 12.2865 12.4815 12.8198C13.0281 13.3531 13.7348 13.6198 14.6015 13.6198ZM21.8929 14.7998V4.4798H23.4929V6.1598H23.5729C23.8262 5.57314 24.1795 5.10647 24.6329 4.7598C25.0995 4.41314 25.7195 4.2398 26.4929 4.2398C27.5595 4.2398 28.3995 4.58647 29.0129 5.2798C29.6395 5.9598 29.9529 6.92647 29.9529 8.1798V14.7998H28.3529V8.4598C28.3529 6.60647 27.5729 5.6798 26.0129 5.6798C25.6929 5.6798 25.3795 5.7198 25.0729 5.7998C24.7795 5.8798 24.5129 5.9998 24.2729 6.1598C24.0329 6.3198 23.8395 6.52647 23.6929 6.7798C23.5595 7.0198 23.4929 7.30647 23.4929 7.6398V14.7998H21.8929ZM35.5401 14.7998C34.9801 14.7998 34.5534 14.6465 34.2601 14.3398C33.9801 14.0198 33.8401 13.6065 33.8401 13.0998V5.8798H32.1401V4.4798H33.1001C33.4467 4.4798 33.6801 4.41314 33.8001 4.2798C33.9334 4.13314 34.0001 3.88647 34.0001 3.5398V1.6198H35.4401V4.4798H37.7001V5.8798H35.4401V13.3998H37.5401V14.7998H35.5401ZM47.7718 14.7998C47.1718 14.7998 46.7384 14.6398 46.4718 14.3198C46.2184 13.9998 46.0584 13.5998 45.9918 13.1198H45.8918C45.6651 13.7598 45.2918 14.2398 44.7718 14.5598C44.2518 14.8798 43.6318 15.0398 42.9118 15.0398C41.8184 15.0398 40.9651 14.7598 40.3518 14.1998C39.7518 13.6398 39.4518 12.8798 39.4518 11.9198C39.4518 10.9465 39.8051 10.1998 40.5118 9.6798C41.2318 9.1598 42.3451 8.8998 43.8518 8.8998H45.8918V7.8798C45.8918 7.14647 45.6918 6.58647 45.2918 6.1998C44.8918 5.81314 44.2784 5.6198 43.4518 5.6198C42.8251 5.6198 42.2984 5.7598 41.8718 6.0398C41.4584 6.3198 41.1118 6.69314 40.8318 7.1598L39.8718 6.2598C40.1518 5.6998 40.5984 5.22647 41.2118 4.8398C41.8251 4.4398 42.5984 4.2398 43.5318 4.2398C44.7851 4.2398 45.7584 4.54647 46.4518 5.1598C47.1451 5.77314 47.4918 6.62647 47.4918 7.7198V13.3998H48.6718V14.7998H47.7718ZM43.1718 13.6798C43.5718 13.6798 43.9384 13.6331 44.2718 13.5398C44.6051 13.4465 44.8918 13.3131 45.1318 13.1398C45.3718 12.9665 45.5584 12.7665 45.6918 12.5398C45.8251 12.3131 45.8918 12.0665 45.8918 11.7998V10.0998H43.7718C42.8518 10.0998 42.1784 10.2331 41.7518 10.4998C41.3384 10.7665 41.1318 11.1531 41.1318 11.6598V12.0798C41.1318 12.5865 41.3118 12.9798 41.6718 13.2598C42.0451 13.5398 42.5451 13.6798 43.1718 13.6798ZM54.7954 15.0398C54.0754 15.0398 53.4287 14.9131 52.8554 14.6598C52.282 14.4065 51.7954 14.0465 51.3954 13.5798C51.0087 13.1131 50.7087 12.5465 50.4954 11.8798C50.2954 11.2131 50.1954 10.4665 50.1954 9.6398C50.1954 8.81314 50.2954 8.06647 50.4954 7.3998C50.7087 6.73314 51.0087 6.16647 51.3954 5.6998C51.7954 5.23314 52.282 4.87314 52.8554 4.6198C53.4287 4.36647 54.0754 4.2398 54.7954 4.2398C55.822 4.2398 56.642 4.46647 57.2554 4.9198C57.882 5.3598 58.3487 5.9398 58.6554 6.6598L57.3154 7.3398C57.1287 6.80647 56.822 6.39314 56.3954 6.0998C55.9687 5.80647 55.4354 5.6598 54.7954 5.6598C54.3154 5.6598 53.8954 5.7398 53.5354 5.8998C53.1754 6.04647 52.8754 6.2598 52.6354 6.5398C52.3954 6.80647 52.2154 7.13314 52.0954 7.5198C51.9754 7.89314 51.9154 8.30647 51.9154 8.7598V10.5198C51.9154 11.4265 52.1554 12.1731 52.6354 12.7598C53.1287 13.3331 53.8487 13.6198 54.7954 13.6198C56.0887 13.6198 57.022 13.0198 57.5954 11.8198L58.7554 12.5998C58.422 13.3465 57.922 13.9398 57.2554 14.3798C56.602 14.8198 55.782 15.0398 54.7954 15.0398ZM63.294 14.7998C62.734 14.7998 62.3073 14.6465 62.014 14.3398C61.734 14.0198 61.594 13.6065 61.594 13.0998V5.8798H59.894V4.4798H60.854C61.2006 4.4798 61.434 4.41314 61.554 4.2798C61.6873 4.13314 61.754 3.88647 61.754 3.5398V1.6198H63.194V4.4798H65.454V5.8798H63.194V13.3998H65.294V14.7998H63.294ZM79.808 17.2198H75.168C74.0214 17.2198 72.9747 17.0265 72.028 16.6398C71.0947 16.2531 70.2947 15.6998 69.628 14.9798C68.9614 14.2731 68.4414 13.4198 68.068 12.4198C67.708 11.4065 67.528 10.2798 67.528 9.0398C67.528 7.7998 67.7147 6.66647 68.088 5.6398C68.4614 4.61314 68.988 3.73314 69.668 2.9998C70.348 2.25314 71.168 1.67314 72.128 1.2598C73.088 0.846471 74.1614 0.639805 75.348 0.639805C76.2814 0.639805 77.1947 0.786471 78.088 1.0798C78.9814 1.3598 79.768 1.80647 80.448 2.4198C81.1414 3.03314 81.6947 3.83314 82.108 4.8198C82.5347 5.79314 82.748 6.96647 82.748 8.3398C82.748 9.03314 82.6814 9.68647 82.548 10.2998C82.428 10.9131 82.228 11.4531 81.948 11.9198C81.668 12.3731 81.308 12.7398 80.868 13.0198C80.428 13.2865 79.8947 13.4198 79.268 13.4198C78.628 13.4198 78.148 13.2598 77.828 12.9398C77.508 12.6198 77.3147 12.2065 77.248 11.6998H77.168C76.9014 12.2331 76.5747 12.6531 76.188 12.9598C75.8014 13.2665 75.3014 13.4198 74.688 13.4198C74.2214 13.4198 73.7747 13.3331 73.348 13.1598C72.9347 12.9731 72.568 12.6998 72.248 12.3398C71.928 11.9798 71.6747 11.5265 71.488 10.9798C71.3014 10.4198 71.208 9.76647 71.208 9.0198C71.208 8.27314 71.3014 7.62647 71.488 7.0798C71.6747 6.5198 71.928 6.0598 72.248 5.6998C72.568 5.3398 72.9347 5.07314 73.348 4.8998C73.7747 4.71314 74.2214 4.6198 74.688 4.6198C75.3014 4.6198 75.788 4.77314 76.148 5.0798C76.508 5.37314 76.7814 5.73314 76.968 6.1598H77.048V4.7998H78.428V10.8798C78.428 11.3998 78.5147 11.7531 78.688 11.9398C78.8747 12.1131 79.1547 12.1998 79.528 12.1998C80.1547 12.1998 80.628 11.8798 80.948 11.2398C81.268 10.5998 81.428 9.7198 81.428 8.5998V7.6798C81.428 6.7998 81.268 5.9998 80.948 5.2798C80.6414 4.5598 80.2147 3.94647 79.668 3.4398C79.1214 2.93314 78.4747 2.5398 77.728 2.2598C76.9814 1.9798 76.1814 1.8398 75.328 1.8398C74.368 1.8398 73.4947 2.00647 72.708 2.3398C71.9214 2.67314 71.2414 3.1398 70.668 3.7398C70.0947 4.32647 69.648 5.0198 69.328 5.8198C69.0214 6.60647 68.868 7.4598 68.868 8.3798V9.5598C68.868 10.5065 69.0214 11.3731 69.328 12.1598C69.6347 12.9465 70.0614 13.6265 70.608 14.1998C71.168 14.7731 71.8347 15.2131 72.608 15.5198C73.3814 15.8398 74.2414 15.9998 75.188 15.9998H79.808V17.2198ZM74.968 12.0998C75.6747 12.0998 76.1947 11.9331 76.528 11.5998C76.8747 11.2665 77.048 10.7931 77.048 10.1798V7.7398C77.048 7.23314 76.8814 6.80647 76.548 6.4598C76.2147 6.11314 75.688 5.9398 74.968 5.9398C74.248 5.9398 73.7214 6.14647 73.388 6.5598C73.0547 6.97314 72.888 7.52647 72.888 8.2198V9.8198C72.888 10.5131 73.0547 11.0665 73.388 11.4798C73.7214 11.8931 74.248 12.0998 74.968 12.0998Z" fill="white"/>
<path d="M87.4405 14.7998C86.8805 14.7998 86.4539 14.6465 86.1605 14.3398C85.8805 14.0198 85.7405 13.6198 85.7405 13.1398V-0.000195503H87.3405V13.3998H88.8605V14.7998H87.4405ZM98.6897 14.7998C98.0897 14.7998 97.6564 14.6398 97.3897 14.3198C97.1364 13.9998 96.9764 13.5998 96.9097 13.1198H96.8097C96.5831 13.7598 96.2097 14.2398 95.6897 14.5598C95.1697 14.8798 94.5497 15.0398 93.8297 15.0398C92.7364 15.0398 91.8831 14.7598 91.2697 14.1998C90.6697 13.6398 90.3697 12.8798 90.3697 11.9198C90.3697 10.9465 90.7231 10.1998 91.4297 9.6798C92.1497 9.1598 93.2631 8.8998 94.7697 8.8998H96.8097V7.8798C96.8097 7.14647 96.6097 6.58647 96.2097 6.1998C95.8097 5.81314 95.1964 5.6198 94.3697 5.6198C93.7431 5.6198 93.2164 5.7598 92.7897 6.0398C92.3764 6.3198 92.0297 6.69314 91.7497 7.1598L90.7897 6.2598C91.0697 5.6998 91.5164 5.22647 92.1297 4.8398C92.7431 4.4398 93.5164 4.2398 94.4497 4.2398C95.7031 4.2398 96.6764 4.54647 97.3697 5.1598C98.0631 5.77314 98.4097 6.62647 98.4097 7.7198V13.3998H99.5897V14.7998H98.6897ZM94.0897 13.6798C94.4897 13.6798 94.8564 13.6331 95.1897 13.5398C95.5231 13.4465 95.8097 13.3131 96.0497 13.1398C96.2897 12.9665 96.4764 12.7665 96.6097 12.5398C96.7431 12.3131 96.8097 12.0665 96.8097 11.7998V10.0998H94.6897C93.7697 10.0998 93.0964 10.2331 92.6697 10.4998C92.2564 10.7665 92.0497 11.1531 92.0497 11.6598V12.0798C92.0497 12.5865 92.2297 12.9798 92.5897 13.2598C92.9631 13.5398 93.4631 13.6798 94.0897 13.6798ZM101.873 -0.000195503H103.473V6.1598H103.553C103.82 5.50647 104.207 5.02647 104.713 4.7198C105.233 4.3998 105.853 4.2398 106.573 4.2398C107.213 4.2398 107.793 4.36647 108.313 4.6198C108.833 4.87314 109.273 5.23314 109.633 5.6998C110.007 6.16647 110.287 6.73314 110.473 7.3998C110.673 8.06647 110.773 8.81314 110.773 9.6398C110.773 10.4665 110.673 11.2131 110.473 11.8798C110.287 12.5465 110.007 13.1131 109.633 13.5798C109.273 14.0465 108.833 14.4065 108.313 14.6598C107.793 14.9131 107.213 15.0398 106.573 15.0398C105.173 15.0398 104.167 14.3998 103.553 13.1198H103.473V14.7998H101.873V-0.000195503ZM106.133 13.5998C107.04 13.5998 107.753 13.3198 108.273 12.7598C108.793 12.1865 109.053 11.4398 109.053 10.5198V8.7598C109.053 7.8398 108.793 7.0998 108.273 6.5398C107.753 5.96647 107.04 5.6798 106.133 5.6798C105.773 5.6798 105.427 5.73314 105.093 5.8398C104.773 5.93314 104.493 6.06647 104.253 6.2398C104.013 6.41314 103.82 6.62647 103.673 6.8798C103.54 7.1198 103.473 7.3798 103.473 7.6598V11.4998C103.473 11.8331 103.54 12.1331 103.673 12.3998C103.82 12.6531 104.013 12.8731 104.253 13.0598C104.493 13.2331 104.773 13.3665 105.093 13.4598C105.427 13.5531 105.773 13.5998 106.133 13.5998ZM113.475 14.7998V4.4798H115.075V6.1598H115.155C115.408 5.57314 115.762 5.10647 116.215 4.7598C116.682 4.41314 117.302 4.2398 118.075 4.2398C119.142 4.2398 119.982 4.58647 120.595 5.2798C121.222 5.9598 121.535 6.92647 121.535 8.1798V14.7998H119.935V8.4598C119.935 6.60647 119.155 5.6798 117.595 5.6798C117.275 5.6798 116.962 5.7198 116.655 5.7998C116.362 5.8798 116.095 5.9998 115.855 6.1598C115.615 6.3198 115.422 6.52647 115.275 6.7798C115.142 7.0198 115.075 7.30647 115.075 7.6398V14.7998H113.475ZM128.742 15.0398C128.049 15.0398 127.415 14.9131 126.842 14.6598C126.269 14.4065 125.775 14.0465 125.362 13.5798C124.962 13.0998 124.649 12.5331 124.422 11.8798C124.195 11.2131 124.082 10.4665 124.082 9.6398C124.082 8.82647 124.195 8.08647 124.422 7.4198C124.649 6.75314 124.962 6.18647 125.362 5.7198C125.775 5.2398 126.269 4.87314 126.842 4.6198C127.415 4.36647 128.049 4.2398 128.742 4.2398C129.435 4.2398 130.062 4.36647 130.622 4.6198C131.195 4.87314 131.689 5.2398 132.102 5.7198C132.515 6.18647 132.835 6.75314 133.062 7.4198C133.289 8.08647 133.402 8.82647 133.402 9.6398C133.402 10.4665 133.289 11.2131 133.062 11.8798C132.835 12.5331 132.515 13.0998 132.102 13.5798C131.689 14.0465 131.195 14.4065 130.622 14.6598C130.062 14.9131 129.435 15.0398 128.742 15.0398ZM128.742 13.6198C129.609 13.6198 130.315 13.3531 130.862 12.8198C131.409 12.2865 131.682 11.4731 131.682 10.3798V8.8998C131.682 7.80647 131.409 6.99314 130.862 6.4598C130.315 5.92647 129.609 5.6598 128.742 5.6598C127.875 5.6598 127.169 5.92647 126.622 6.4598C126.075 6.99314 125.802 7.80647 125.802 8.8998V10.3798C125.802 11.4731 126.075 12.2865 126.622 12.8198C127.169 13.3531 127.875 13.6198 128.742 13.6198ZM134.856 4.4798H136.416L137.516 8.9398L138.616 13.4598H138.656L139.916 8.9398L141.216 4.4798H142.636L143.976 8.9398L145.256 13.4598H145.296L146.356 8.9398L147.476 4.4798H148.976L146.236 14.7998H144.256L142.816 9.8398L141.916 6.6998H141.876L140.996 9.8398L139.556 14.7998H137.616L134.856 4.4798ZM151.702 15.0398C151.275 15.0398 150.962 14.9331 150.762 14.7198C150.575 14.5065 150.482 14.2265 150.482 13.8798V13.6198C150.482 13.2731 150.575 12.9931 150.762 12.7798C150.962 12.5665 151.275 12.4598 151.702 12.4598C152.129 12.4598 152.435 12.5665 152.622 12.7798C152.822 12.9931 152.922 13.2731 152.922 13.6198V13.8798C152.922 14.2265 152.822 14.5065 152.622 14.7198C152.435 14.9331 152.129 15.0398 151.702 15.0398ZM163.729 14.7998C163.129 14.7998 162.695 14.6398 162.429 14.3198C162.175 13.9998 162.015 13.5998 161.949 13.1198H161.849C161.622 13.7598 161.249 14.2398 160.729 14.5598C160.209 14.8798 159.589 15.0398 158.869 15.0398C157.775 15.0398 156.922 14.7598 156.309 14.1998C155.709 13.6398 155.409 12.8798 155.409 11.9198C155.409 10.9465 155.762 10.1998 156.469 9.6798C157.189 9.1598 158.302 8.8998 159.809 8.8998H161.849V7.8798C161.849 7.14647 161.649 6.58647 161.249 6.1998C160.849 5.81314 160.235 5.6198 159.409 5.6198C158.782 5.6198 158.255 5.7598 157.829 6.0398C157.415 6.3198 157.069 6.69314 156.789 7.1598L155.829 6.2598C156.109 5.6998 156.555 5.22647 157.169 4.8398C157.782 4.4398 158.555 4.2398 159.489 4.2398C160.742 4.2398 161.715 4.54647 162.409 5.1598C163.102 5.77314 163.449 6.62647 163.449 7.7198V13.3998H164.629V14.7998H163.729ZM159.129 13.6798C159.529 13.6798 159.895 13.6331 160.229 13.5398C160.562 13.4465 160.849 13.3131 161.089 13.1398C161.329 12.9665 161.515 12.7665 161.649 12.5398C161.782 12.3131 161.849 12.0665 161.849 11.7998V10.0998H159.729C158.809 10.0998 158.135 10.2331 157.709 10.4998C157.295 10.7665 157.089 11.1531 157.089 11.6598V12.0798C157.089 12.5865 157.269 12.9798 157.629 13.2598C158.002 13.5398 158.502 13.6798 159.129 13.6798ZM167.712 2.0598C167.366 2.0598 167.112 1.9798 166.952 1.8198C166.806 1.64647 166.732 1.42647 166.732 1.1598V0.899804C166.732 0.633137 166.806 0.419804 166.952 0.259804C167.112 0.0864708 167.366 -0.000195503 167.712 -0.000195503C168.059 -0.000195503 168.306 0.0864708 168.452 0.259804C168.612 0.419804 168.692 0.633137 168.692 0.899804V1.1598C168.692 1.42647 168.612 1.64647 168.452 1.8198C168.306 1.9798 168.059 2.0598 167.712 2.0598ZM166.912 4.4798H168.512V14.7998H166.912V4.4798Z" fill="url(#paint0_linear_274_2)"/>
<a href="mailto:contact@labnow.ai">
<rect fill="black" fill-opacity="0" x="0.423828" width="171.152" height="26"/>
</a>
<defs>
<linearGradient id="paint0_linear_274_2" x1="-1.36377" y1="6.7998" x2="170.636" y2="6.7998" gradientUnits="userSpaceOnUse">
<stop stop-color="#0F6FFF"/>
<stop offset="0.504808" stop-color="#6FB1FC"/>
<stop offset="1" stop-color="#0F62FE"/>
</linearGradient>
</defs>
</svg>
